<svg width="40" height="34" viewBox="0 0 40 34" fill="none" xmlns="http://www.w3.org/2000/svg">
<path d="M32.8125 19.1875C28.8492 19.1875 25.625 22.4117 25.625 26.375C25.625 30.3383 28.8492 33.5625 32.8125 33.5625C36.7758 33.5625 40 30.3383 40 26.375C40 22.4117 36.7758 19.1875 32.8125 19.1875ZM35.625 27H33.4375V29.1875C33.4375 29.5328 33.1578 29.8125 32.8125 29.8125C32.4672 29.8125 32.1875 29.5328 32.1875 29.1875V27H30C29.6547 27 29.375 26.7203 29.375 26.375C29.375 26.0297 29.6547 25.75 30 25.75H32.1875V23.5625C32.1875 23.2172 32.4672 22.9375 32.8125 22.9375C33.1578 22.9375 33.4375 23.2172 33.4375 23.5625V25.75H35.625C35.9703 25.75 36.25 26.0297 36.25 26.375C36.25 26.7203 35.9703 27 35.625 27Z" fill="#8E8E93"/>
<path d="M30.882 18.1602C31.3406 18.0523 31.5195 17.4945 31.2086 17.1406L25.0922 10.1641C24.6172 9.62266 23.932 9.31172 23.2125 9.31172C23.2117 9.31172 23.2117 9.31172 23.2109 9.31172C22.4906 9.3125 21.8047 9.62344 21.3305 10.1664L13.0273 19.6633L9.17734 15.2719C8.70234 14.7305 8.01719 14.4195 7.29766 14.4195C7.29688 14.4195 7.29688 14.4195 7.29609 14.4195C6.575 14.4203 5.88984 14.7313 5.41563 15.2742L1.25 20.0383V4.96875C1.25 3.15625 2.71875 1.6875 4.53125 1.6875H30.4688C32.2812 1.6875 33.75 3.15625 33.75 4.96875V17.4539C33.75 17.7539 33.9656 18.0109 34.2617 18.0625L34.2742 18.0648C34.6531 18.1313 35 17.8391 35 17.4547V4.96875C35 2.46641 32.9711 0.4375 30.4688 0.4375H4.53125C2.02891 0.4375 0 2.46641 0 4.96875V22.4688C0 24.9711 2.02891 27 4.53125 27H23.7562C24.0969 27 24.375 26.7219 24.375 26.3812V26.375C24.375 22.3867 27.157 19.0352 30.882 18.1602Z" fill="#8E8E93"/>
<path d="M13.3349 10.3605C15.0141 10.1076 16.1703 8.54125 15.9173 6.86208C15.6643 5.18291 14.098 4.02676 12.4188 4.27973C10.7397 4.53271 9.5835 6.09903 9.83648 7.7782C10.0895 9.45736 11.6558 10.6135 13.3349 10.3605Z" fill="#8E8E93"/>
</svg>
