<svg width="30" height="30" viewBox="0 0 30 30" fill="none" xmlns="http://www.w3.org/2000/svg">
<path d="M13.6439 19.595L13.165 20.1868C13.592 20.5834 14.1349 20.8328 14.714 20.8982V21.3435H15.3189V20.9181C16.2832 20.8515 16.8349 20.2932 16.8349 19.5285C16.8349 18.7175 16.23 18.4051 15.3189 18.1989V16.9489C15.6703 17.0341 15.9948 17.2055 16.2632 17.4477L16.7151 16.836C16.3264 16.4882 15.8378 16.2721 15.3189 16.2186V15.8057H14.714V16.2111C13.8963 16.3107 13.3446 16.8627 13.3446 17.5806C13.3446 18.365 13.8963 18.6575 14.714 18.8696V20.166C14.3122 20.0762 13.9422 19.8788 13.6439 19.595ZM15.3189 19.0232C15.7912 19.1638 16.0038 19.3025 16.0038 19.6091C16.0038 19.9016 15.7713 20.1543 15.3189 20.2075V19.0232ZM14.1822 17.5077C14.1932 17.3663 14.2518 17.2328 14.3484 17.129C14.4449 17.0251 14.5738 16.9571 14.714 16.9358V18.0393C14.3552 17.9132 14.1822 17.7735 14.1822 17.5077Z" fill="black"/>
<path d="M15 22.875C15.8507 22.875 16.6823 22.6228 17.3897 22.1502C18.097 21.6776 18.6483 21.0058 18.9739 20.2199C19.2994 19.4339 19.3846 18.5691 19.2186 17.7348C19.0526 16.9004 18.6429 16.134 18.0413 15.5325C17.4398 14.931 16.6733 14.5214 15.839 14.3555C15.0046 14.1896 14.1398 14.2749 13.3539 14.6005C12.568 14.9262 11.8963 15.4775 11.4237 16.1849C10.9512 16.8923 10.6991 17.724 10.6992 18.5747C10.7008 19.7148 11.1544 20.8078 11.9606 21.6139C12.7669 22.42 13.8599 22.8736 15 22.875ZM15 15.0937C15.6884 15.0937 16.3614 15.2978 16.9338 15.6802C17.5062 16.0626 17.9524 16.6062 18.2159 17.2422C18.4794 17.8782 18.5484 18.5781 18.4141 19.2533C18.2798 19.9285 17.9484 20.5487 17.4616 21.0355C16.9749 21.5223 16.3547 21.8539 15.6795 21.9882C15.0043 22.1226 14.3045 22.0537 13.6684 21.7903C13.0324 21.5269 12.4888 21.0808 12.1063 20.5084C11.7238 19.936 11.5196 19.2631 11.5195 18.5747C11.5206 17.6519 11.8876 16.7672 12.5401 16.1146C13.1925 15.462 14.0772 15.0949 15 15.0937Z" fill="black"/>
<path d="M28.5216 8.50488C28.5755 8.50491 28.6288 8.49433 28.6786 8.47372C28.7284 8.45312 28.7736 8.42291 28.8117 8.38482C28.8498 8.34673 28.88 8.3015 28.9006 8.25172C28.9212 8.20195 28.9318 8.1486 28.9318 8.09473V6.30621C28.9317 6.22164 28.9056 6.13914 28.8569 6.07C28.8082 6.00086 28.7393 5.94846 28.6597 5.91996L15.1376 1.0916C15.0485 1.05996 14.9512 1.05996 14.862 1.0916L1.34021 5.91996C1.26054 5.94842 1.19161 6.00081 1.14286 6.06995C1.09411 6.13909 1.06792 6.22161 1.06787 6.30621V8.09473C1.06787 8.20351 1.11108 8.30783 1.188 8.38475C1.26492 8.46167 1.36925 8.50488 1.47803 8.50488H2.14061V9.57106H1.47803C1.36925 9.57106 1.26492 9.61427 1.188 9.69119C1.11108 9.76811 1.06787 9.87243 1.06787 9.98121V11.9106C1.06787 12.0194 1.11108 12.1237 1.188 12.2006C1.26492 12.2775 1.36925 12.3207 1.47803 12.3207H2.98693V13.9117C2.98693 14.0205 3.03015 14.1248 3.10707 14.2017C3.18398 14.2786 3.28831 14.3218 3.39709 14.3218H3.76154V22.828H3.39826C3.2895 22.8281 3.18521 22.8713 3.10831 22.9482C3.0314 23.0251 2.98817 23.1294 2.98811 23.2382V24.8291H1.47803C1.36925 24.8291 1.26492 24.8723 1.188 24.9492C1.11108 25.0262 1.06787 25.1305 1.06787 25.2393V28.5224C1.06787 28.6312 1.11108 28.7355 1.188 28.8124C1.26492 28.8893 1.36925 28.9325 1.47803 28.9325H28.5216C28.5755 28.9326 28.6288 28.922 28.6786 28.9014C28.7284 28.8808 28.7736 28.8506 28.8117 28.8125C28.8498 28.7744 28.88 28.7292 28.9006 28.6794C28.9212 28.6296 28.9318 28.5763 28.9318 28.5224V25.2386C28.9318 25.1847 28.9212 25.1313 28.9006 25.0816C28.88 25.0318 28.8498 24.9866 28.8117 24.9485C28.7736 24.9104 28.7284 24.8802 28.6786 24.8596C28.6288 24.839 28.5755 24.8284 28.5216 24.8284H27.0127V23.2375C27.0127 23.1287 26.9695 23.0244 26.8926 22.9474C26.8157 22.8705 26.7113 22.8273 26.6026 22.8273H26.2381V14.3218H26.6026C26.6564 14.3219 26.7098 14.3113 26.7596 14.2907C26.8093 14.2701 26.8546 14.2399 26.8927 14.2018C26.9307 14.1637 26.961 14.1185 26.9816 14.0687C27.0022 14.0189 27.0127 13.9656 27.0127 13.9117V12.3207H28.5216C28.5755 12.3208 28.6288 12.3102 28.6786 12.2896C28.7284 12.269 28.7736 12.2388 28.8117 12.2007C28.8498 12.1626 28.88 12.1174 28.9006 12.0676C28.9212 12.0178 28.9318 11.9645 28.9318 11.9106V9.98121C28.9318 9.92734 28.9212 9.87399 28.9006 9.82421C28.88 9.77444 28.8498 9.72921 28.8117 9.69112C28.7736 9.65303 28.7284 9.62282 28.6786 9.60221C28.6288 9.58161 28.5755 9.57102 28.5216 9.57106H27.859V8.50488H28.5216ZM1.88818 6.59543L14.9998 1.91355L28.1115 6.59543V7.68457H1.88818V6.59543ZM7.91162 12.3207V13.5015H3.80725V12.3207H7.91162ZM21.2687 12.3207V13.9117C21.2686 13.9656 21.2792 14.0189 21.2998 14.0687C21.3204 14.1185 21.3506 14.1637 21.3887 14.2018C21.4268 14.2399 21.472 14.2701 21.5218 14.2907C21.5716 14.3113 21.6249 14.3219 21.6788 14.3218H22.0428V22.828H21.6795C21.5707 22.828 21.4664 22.8712 21.3895 22.9481C21.3126 23.0251 21.2694 23.1294 21.2694 23.2382V24.8291H8.73147V23.2375C8.7314 23.1287 8.68817 23.0244 8.61126 22.9475C8.53436 22.8706 8.43007 22.8274 8.32131 22.8273H7.95686V14.3218H8.32131C8.43009 14.3218 8.53441 14.2786 8.61133 14.2017C8.68825 14.1248 8.73147 14.0205 8.73147 13.9117V12.3207H21.2687ZM4.58115 14.3218H7.13584V22.828H4.58186L4.58115 14.3218ZM3.80771 23.6476H7.91162V24.8284H3.80725L3.80771 23.6476ZM28.1124 28.1115H1.88818V25.6487H28.1115L28.1124 28.1115ZM22.089 24.8284V23.6483H26.1929V24.8291L22.089 24.8284ZM25.4171 22.8273H22.8631V14.3218H25.4178L25.4171 22.8273ZM26.1905 13.5015H22.0885V12.3207H26.1924L26.1905 13.5015ZM28.1096 11.5004H1.88818V10.3914H28.1115L28.1096 11.5004ZM27.0369 9.57106H2.96092V8.50488H27.0387L27.0369 9.57106Z" fill="black"/>
</svg>
