<svg width="30" height="30" viewBox="0 0 30 30" fill="none" xmlns="http://www.w3.org/2000/svg">
<path d="M23.3354 15.6894L26.807 14.2133C27.1288 14.076 27.2783 13.7038 27.1409 13.382C27.0863 13.2542 26.9912 13.1479 26.8703 13.0794L25.1472 12.0911L26.8386 11.3753C27.1604 11.238 27.31 10.8657 27.1726 10.544C27.118 10.4162 27.0229 10.3098 26.902 10.2413L25.1472 9.25307L26.8386 8.53723C27.1604 8.39992 27.31 8.02766 27.1726 7.70592C27.118 7.57812 27.0229 7.47177 26.902 7.40327L25.1472 6.41502L26.8386 5.69917C27.1604 5.56186 27.31 5.1896 27.1726 4.86787C27.118 4.74006 27.0229 4.63371 26.902 4.56522L18.9009 0.0800751C18.7317 -0.0141572 18.5287 -0.0258768 18.3498 0.0484004L12.4266 2.47468C12.355 2.47753 12.2843 2.4925 12.2176 2.51903L8.60033 4.03942L1.16944 7.08652C0.843427 7.21362 0.682203 7.58089 0.809297 7.90682C0.860373 8.03787 0.953655 8.14826 1.07441 8.22048L2.81652 9.24674L1.16944 9.93091C0.844852 10.0615 0.687508 10.4304 0.818087 10.755C0.868767 10.8811 0.958644 10.9874 1.07441 11.0585L2.81652 12.0848L1.15677 12.769C0.83242 12.9002 0.675947 13.2695 0.807159 13.5939C0.85966 13.7236 0.953655 13.8322 1.07441 13.9029L2.81652 14.9292L1.16944 15.6324C0.849049 15.7728 0.703108 16.1465 0.843585 16.4669C0.892523 16.5786 0.97266 16.6737 1.07434 16.741L3.01283 17.8813V26.7502C3.01283 28.8597 6.65542 30 10.0826 30C12.3949 30 14.7958 29.4806 16.1198 28.4923C17.3868 29.4172 19.6294 30 22.1697 30C25.5969 30 29.2395 28.8597 29.2395 26.7502V18.8949C29.2459 17.0197 26.3762 15.9174 23.3354 15.6894ZM20.453 15.5437V14.0803L23.6585 12.7183L25.1472 13.5545L20.453 15.5437ZM20.453 12.7056V11.2422L23.6585 9.88023L25.1472 10.7164L20.453 12.7056ZM20.453 9.86756V8.39786L23.6585 7.03584L25.1472 7.87839L20.453 9.86756ZM18.5525 1.33439L25.1472 5.034L19.8575 7.27024L13.852 3.26022L18.5525 1.33439ZM8.73336 5.35708L14.8086 9.41145L9.46821 11.6794L2.82919 7.77703L8.73336 5.35708ZM4.20388 10.0513L9.10079 12.9337C9.27405 13.0362 9.48564 13.0503 9.67093 12.9717L15.5054 10.4947V11.9581L12.528 13.2251C10.81 12.9495 9.05755 12.9688 7.34601 13.2821L2.82919 10.6151L4.20388 10.0513ZM15.4991 13.3328V14.1373C15.1986 13.9804 14.8874 13.845 14.5678 13.7319L15.4991 13.3328ZM3.02558 16.2659V16.3989L2.82919 16.2849L3.03191 16.2025L3.02558 16.2659ZM2.82919 13.4468L4.20388 12.883L5.6229 13.7319C5.1793 13.8975 4.75454 14.1098 4.35592 14.3654L2.82919 13.4468ZM15.8918 26.7502C15.8918 27.5611 13.6303 28.733 10.089 28.733C6.54781 28.733 4.28623 27.5611 4.28623 26.7502V26.0407C5.64824 26.9212 7.90982 27.3837 10.089 27.3837C12.2683 27.3837 14.5235 26.9212 15.8918 26.0407V26.7502ZM15.8918 24.1339C15.8918 24.9447 13.6303 26.1167 10.089 26.1167C6.54781 26.1167 4.28623 24.9447 4.28623 24.1339V23.4243C5.64824 24.3049 7.90982 24.7674 10.089 24.7674C12.2683 24.7674 14.5235 24.3049 15.8918 23.4243V24.1339ZM15.8918 21.5175C15.8918 22.3284 13.6303 23.5004 10.089 23.5004C6.54781 23.5004 4.28623 22.3284 4.28623 21.5175V20.808C5.64824 21.6886 7.90982 22.151 10.089 22.151C12.2683 22.151 14.5235 21.6886 15.8918 20.808V21.5175ZM15.8918 18.9012C15.8918 19.7121 13.6303 20.884 10.089 20.884C6.54781 20.884 4.28623 19.7057 4.28623 18.9012V18.1663C5.64824 19.0469 7.90982 19.5093 10.089 19.5093C12.2683 19.5093 14.5235 19.0469 15.8918 18.1663V18.9012ZM10.0954 18.2614L10.089 18.2677C6.54781 18.2677 4.28623 17.0894 4.28623 16.2849C4.28623 15.4803 6.54781 14.302 10.089 14.302C13.6303 14.302 15.8982 15.4677 15.8982 16.2659C15.8982 17.0641 13.6366 18.2614 10.0954 18.2614ZM16.4873 9.01235L10.1524 4.7806L12.4393 3.84303L19.1733 8.33451V15.9364C18.4828 16.0736 17.8094 16.2861 17.1652 16.5699V16.2659C17.1602 15.8592 17.0222 15.4654 16.7724 15.1446V9.53815C16.7713 9.32624 16.6643 9.12891 16.4873 9.01235ZM27.9789 26.7502C27.9789 27.5611 25.7173 28.733 22.1761 28.733C19.6928 28.733 17.8557 28.1565 16.9688 27.5357C17.0913 27.2918 17.1563 27.0231 17.1588 26.7502V26.4715C18.7522 27.1125 20.4591 27.4228 22.1761 27.3837C24.3553 27.3837 26.6106 26.9212 27.9789 26.0407V26.7502ZM27.9789 24.1339C27.9789 24.9447 25.7173 26.1167 22.1761 26.1167C20.4401 26.1812 18.7154 25.8111 17.1588 25.0398V23.8678C18.7522 24.5088 20.4591 24.8191 22.1761 24.78C24.3553 24.78 26.6106 24.3176 27.9789 23.437V24.1339ZM27.9789 21.5175C27.9789 22.3284 25.7173 23.5004 22.1761 23.5004C20.4401 23.5652 18.7153 23.195 17.1588 22.4234V21.2325C18.7522 21.8735 20.4591 22.1838 22.1761 22.1447C24.3553 22.1447 26.6106 21.6822 27.9789 20.8017V21.5175ZM22.1761 20.884C20.4401 20.9489 18.7153 20.5787 17.1588 19.8071V17.989C18.7144 17.2135 20.4391 16.839 22.1761 16.8994C25.7173 16.8994 27.9789 18.0777 27.9789 18.8822C27.9789 19.6867 25.7237 20.884 22.1761 20.884Z" fill="black"/>
</svg>
