<svg width="38" height="31" viewBox="0 0 38 31" fill="none" xmlns="http://www.w3.org/2000/svg">
<path d="M9 7.875V5.375C9.6875 5.375 10.25 5.9375 10.25 6.625H11.5C11.5 5.25 10.375 4.125 9 4.125V2.875H7.75V4.125C6.375 4.125 5.25 5.25 5.25 6.625C5.25 8 6.375 9.125 7.75 9.125V11.625C7.0625 11.625 6.5 11.0625 6.5 10.375H5.25C5.25 11.75 6.375 12.875 7.75 12.875V14.125H9V12.875C10.375 12.875 11.5 11.75 11.5 10.375C11.5 9 10.375 7.875 9 7.875ZM6.5 6.625C6.5 5.9375 7.0625 5.375 7.75 5.375V7.875C7.0625 7.875 6.5 7.3125 6.5 6.625ZM9 11.625V9.125C9.6875 9.125 10.25 9.6875 10.25 10.375C10.25 11.0625 9.6875 11.625 9 11.625Z" fill="black"/>
<path d="M8.375 16.625C3.875 16.625 0.25 13 0.25 8.5C0.25 4 3.875 0.375 8.375 0.375C12.875 0.375 16.5 4 16.5 8.5C16.5 13 12.875 16.625 8.375 16.625ZM8.375 1.625C4.5625 1.625 1.5 4.6875 1.5 8.5C1.5 12.3125 4.5625 15.375 8.375 15.375C12.1875 15.375 15.25 12.3125 15.25 8.5C15.25 4.6875 12.1875 1.625 8.375 1.625Z" fill="black"/>
<path d="M36.8126 5.93769C35.8126 5.12519 34.3126 5.25019 33.3751 6.18769L15.3751 24.1877L12.1876 30.0627C12.0626 30.3127 12.1251 30.6252 12.3126 30.8127C12.5001 31.0002 12.8126 31.0627 13.0626 30.9377L18.8751 27.8127L37.0626 9.62519C38.0626 8.56269 38.0001 6.87519 36.8126 5.93769ZM14.2501 28.8752L15.9376 25.6877L17.3751 27.1252L14.2501 28.8752ZM18.4376 26.4377L16.6876 24.6877L30.8126 10.5627L32.5626 12.3127L18.4376 26.4377ZM33.5001 11.3752L31.7501 9.62519L34.3751 7.00019C34.8751 6.50019 35.6251 6.50019 36.1251 7.00019C36.6251 7.50019 36.6251 8.25019 36.1251 8.75019L33.5001 11.3752Z" fill="black"/>
<path d="M30.25 9.75H15.875V11H29L30.25 9.75Z" fill="black"/>
<path d="M13.6875 28.5H4V14.75L2.75 13.5V29.75H12.9375L13.6875 28.5Z" fill="black"/>
<path d="M35.875 9.75L34.625 11H36.5V28.5H15.875L14.625 29.75H37.75V9.75H35.875Z" fill="black"/>
<path d="M6.5 18.5H21.5V19.75H6.5V18.5Z" fill="black"/>
<path d="M6.5 22.25H17.75V23.5H6.5V22.25Z" fill="black"/>
<path d="M24 26H34V27.25H24V26Z" fill="black"/>
<path d="M26.5 18.5H34V19.75H26.5V18.5Z" fill="black"/>
</svg>
