<svg width="20" height="20" viewBox="0 0 20 20" fill="none" xmlns="http://www.w3.org/2000/svg">
<path d="M16.6665 7.1666L9.68317 14.1499C9.4415 14.3916 9.12484 14.5416 8.78317 14.5749L6.3415 14.7999C6.3415 14.7999 6.27484 14.7999 6.24984 14.7999C5.97484 14.7999 5.70817 14.6916 5.5165 14.4916C5.29984 14.2749 5.1915 13.9666 5.2165 13.6583L5.4415 11.2166C5.47484 10.8749 5.62484 10.5583 5.8665 10.3166L12.8332 3.33327L16.6665 7.1666ZM18.2832 2.30827L17.6915 1.7166C16.7998 0.824935 15.3415 0.824935 14.4498 1.7166L13.7165 2.44994L17.5498 6.28327L18.2832 5.54994C18.7165 5.1166 18.9582 4.5416 18.9582 3.93327C18.9582 3.32493 18.7165 2.7416 18.2832 2.3166V2.30827ZM17.2915 15.8416V10.9999C17.2915 10.6583 17.0082 10.3749 16.6665 10.3749C16.3248 10.3749 16.0415 10.6583 16.0415 10.9999V15.8416C16.0415 16.8749 15.1998 17.7166 14.1665 17.7166H4.1665C3.13317 17.7166 2.2915 16.8749 2.2915 15.8416V5.83327C2.2915 4.79994 3.13317 3.95827 4.1665 3.95827H9.00817C9.34984 3.95827 9.63317 3.67494 9.63317 3.33327C9.63317 2.9916 9.34984 2.70827 9.00817 2.70827H4.1665C2.4415 2.70827 1.0415 4.10827 1.0415 5.83327V15.8333C1.0415 17.5583 2.4415 18.9583 4.1665 18.9583H14.1665C15.8915 18.9583 17.2915 17.5583 17.2915 15.8333V15.8416Z" fill="#989894"/>
</svg>
