<svg width="28" height="27" viewBox="0 0 28 27" fill="none" xmlns="http://www.w3.org/2000/svg">
<path d="M23.1166 6.9757C23.1623 6.60419 23.1862 6.22593 23.1862 5.84207C23.1862 2.61562 20.5706 0 17.3441 0H7.58075C6.96661 0 6.44227 0.443496 6.34039 1.0491L2.74285 22.4316C2.61375 23.1989 3.20522 23.8981 3.98321 23.8981H7.55391C8.16806 23.8981 8.70225 23.4549 8.80408 22.8492C8.80408 22.8492 8.81004 22.8137 8.8208 22.7498H8.82085L8.32325 25.7075C8.20956 26.3837 8.73084 27 9.41654 27H12.5404C13.0817 27 13.5438 26.6091 13.6336 26.0753L14.5211 20.8008C14.6741 19.8916 15.4612 19.2258 16.3832 19.2258H17.2038C21.6615 19.2258 25.275 15.6122 25.275 11.1546C25.275 9.4297 24.4224 7.90499 23.1166 6.9757Z" fill="#002987"/>
<path d="M23.1165 6.97559C22.5578 11.5202 18.6845 15.0392 13.9889 15.0392H11.2644C10.6495 15.0392 10.1184 15.4488 9.9518 16.0279L8.32325 25.7073C8.20951 26.3835 8.73079 26.9999 9.41649 26.9999H12.5403C13.0816 26.9999 13.5438 26.609 13.6336 26.0752L14.521 20.8007C14.674 19.8914 15.4612 19.2257 16.3831 19.2257H17.2038C21.6614 19.2257 25.275 15.6121 25.275 11.1545C25.275 9.42958 24.4224 7.90487 23.1165 6.97559Z" fill="#0085CC"/>
<path d="M11.2643 15.0395H13.9888C18.6845 15.0395 22.5578 11.5204 23.1164 6.97589C22.2786 6.37968 21.2547 6.02783 20.148 6.02783H13.0368C12.2271 6.02783 11.5359 6.6125 11.4015 7.4109L9.95166 16.0281C10.1182 15.449 10.6494 15.0395 11.2643 15.0395Z" fill="#00186A"/>
</svg>
