<svg width="20" height="20" viewBox="0 0 20 20" fill="none" xmlns="http://www.w3.org/2000/svg">
<path d="M16.1719 3.125H3.82812C3.61238 3.125 3.4375 2.95012 3.4375 2.73438V1.71875C3.4375 0.769492 4.20699 0 5.15625 0H14.8438C15.793 0 16.5625 0.769492 16.5625 1.71875V2.73438C16.5625 2.95012 16.3876 3.125 16.1719 3.125Z" fill="#989894"/>
<path d="M17.8906 4.375H2.10938C0.94625 4.375 0 5.32125 0 6.48438V13.8281C0 14.9913 0.94625 15.9375 2.10938 15.9375H3.4375V12.8125C3.4375 11.2617 4.69918 10 6.25 10H13.75C15.3008 10 16.5625 11.2617 16.5625 12.8125V15.9375H17.8906C19.0537 15.9375 20 14.9913 20 13.8281V6.48438C20 5.32125 19.0537 4.375 17.8906 4.375ZM3.75078 9.0625C3.23301 9.0625 2.81309 8.64277 2.81309 8.125C2.81309 7.60723 3.23262 7.1875 3.75039 7.1875H3.75078C4.26855 7.1875 4.68828 7.60723 4.68828 8.125C4.68828 8.64277 4.26855 9.0625 3.75078 9.0625Z" fill="#989894"/>
<path d="M13.75 11.875H6.25C5.73223 11.875 5.3125 12.2947 5.3125 12.8125V15.9375V17.1875C5.3125 17.7053 5.73223 18.125 6.25 18.125H13.75C14.2678 18.125 14.6875 17.7053 14.6875 17.1875V15.9375V12.8125C14.6875 12.2947 14.2678 11.875 13.75 11.875Z" fill="#989894"/>
</svg>
