<svg width="24" height="24" viewBox="0 0 24 24" fill="none" xmlns="http://www.w3.org/2000/svg">
<path d="M23.2808 14.631L21.0748 12.906C21.1038 12.64 21.1268 12.329 21.1268 12C21.1268 11.671 21.1028 11.36 21.0748 11.094L23.2828 9.36802C23.6928 9.04402 23.8058 8.469 23.5438 7.99003L21.2498 4.02103C20.9988 3.56405 20.4358 3.35503 19.9228 3.54403L17.3198 4.58902C16.8218 4.22902 16.2988 3.92503 15.7578 3.68203L15.3618 0.921047C15.2968 0.396 14.8408 0 14.3018 0H9.70182C9.16281 0 8.70681 0.396 8.64282 0.911016L8.24584 3.68203C7.72182 3.91903 7.20685 4.21805 6.68584 4.59005L4.07584 3.54206C3.57685 3.34706 3.00882 3.55308 2.75884 4.01105L0.461824 7.98605C0.190839 8.44406 0.301839 9.03806 0.721839 9.37003L2.92782 11.094C2.89281 11.4321 2.87584 11.725 2.87584 12C2.87584 12.2751 2.89285 12.568 2.92585 12.906L0.717855 14.6331C0.308824 14.957 0.196792 15.532 0.457792 16.011L2.75181 19.98C3.00081 20.436 3.56279 20.644 4.07879 20.457L6.68181 19.412C7.17981 19.771 7.70382 20.075 8.24481 20.319L8.64081 23.079C8.70582 23.604 9.16182 24 9.70079 24H14.3008C14.8398 24 15.2958 23.604 15.3598 23.089L15.7568 20.319C16.2808 20.082 16.7957 19.783 17.3168 19.411L19.9268 20.459C20.4238 20.652 20.9938 20.448 21.2438 19.99L23.5498 16.001C23.8048 15.533 23.6928 14.958 23.2808 14.631ZM22.6758 15.511L20.2938 19.529L17.4308 18.379C17.2688 18.314 17.0848 18.339 16.9448 18.443C16.3248 18.907 15.7258 19.256 15.1118 19.507C14.9478 19.574 14.8308 19.723 14.8058 19.899L14.3008 23L9.63381 22.947L9.19679 19.9C9.17078 19.724 9.05481 19.575 8.89079 19.508C8.25179 19.246 7.63679 18.889 7.06178 18.447C6.97276 18.378 6.86476 18.3429 6.75676 18.3429C6.69376 18.3429 6.63076 18.354 6.56978 18.3789L3.62476 19.4899L1.33075 15.5209C1.30975 15.4819 1.31373 15.4369 1.33773 15.4179L3.76473 13.521C3.90273 13.413 3.97473 13.239 3.95275 13.065C3.89973 12.6459 3.87573 12.3069 3.87573 12C3.87573 11.693 3.90071 11.355 3.95275 10.935C3.97473 10.76 3.90273 10.587 3.76473 10.479L1.32582 8.49L3.70782 4.47202L6.57081 5.622C6.73379 5.688 6.91679 5.66302 7.05779 5.55802C7.67678 5.09302 8.27678 4.74502 8.89079 4.494C9.05481 4.42598 9.17078 4.27702 9.19581 4.10198L9.70182 0.999984L14.3698 1.05398L14.8058 4.10198C14.8318 4.278 14.9478 4.42697 15.1118 4.494C15.7498 4.755 16.3648 5.112 16.9408 5.55502C17.0818 5.66302 17.2668 5.68903 17.4318 5.622L20.3769 4.51102L22.6709 8.48002C22.6919 8.51902 22.6879 8.56303 22.6639 8.58202L20.2369 10.479C20.0989 10.587 20.0269 10.76 20.0489 10.935C20.0869 11.239 20.1259 11.604 20.1259 12C20.1259 12.397 20.0869 12.761 20.0489 13.065C20.0269 13.239 20.0989 13.413 20.2369 13.521L22.6609 15.417C22.6868 15.438 22.6918 15.483 22.6758 15.511Z" fill="#FF4400"/>
<path d="M12.0007 7C9.24375 7 7.00073 9.24302 7.00073 12C7.00073 14.757 9.24375 17 12.0007 17C14.7577 17 17.0008 14.757 17.0008 12C17.0008 9.24302 14.7577 7 12.0007 7ZM12.0007 16C9.79476 16 8.00076 14.206 8.00076 12C8.00076 9.79403 9.79476 8.00003 12.0007 8.00003C14.2067 8.00003 16.0007 9.79403 16.0007 12C16.0007 14.206 14.2067 16 12.0007 16Z" fill="#FF4400"/>
</svg>
